<svg width="1576" height="788" viewBox="0 0 1182 591" xmlns="http://www.w3.org/2000/svg">
    <g fill="#fff">
        <path d="M116.75 34.12c21.59.01 43.17 0 64.75.01 0 21.62 0 43.24.01 64.87-21.59.01-43.17 0-64.76 0V34.12zM116.88 144.25h64.99c.01 85.58.01 171.16.01 256.75.02 26.03.68 52.37-4.75 77.99-3.95 17.61-12.39 35.16-27.37 45.95-14.99 11.38-34.3 14.92-52.73 15.07-12.82.25-25.76-.94-38.03-4.8v-57.36c11.64 2.27 23.71 5.44 35.54 2.57 8.14-1.88 14.63-8.34 17.77-15.92 2.49-6.17 3.69-12.8 4.05-19.42.86-15.02.4-30.08.52-45.12V144.25zM276.77 155.71c30.87-11.45 64.82-14.24 97.23-8.69 22.07 4.39 44.21 14.42 58.29 32.57 12.3 16.46 17.68 37.11 19.11 57.35 1.25 23.33.53 46.71.72 70.06v103.38h-58.5c.01-10.8-.02-21.59.03-32.38-.02-1.39-.17-2.76-.47-4.11-3.04 3.14-5.07 7.07-7.95 10.35-9.39 11.69-22.04 20.62-36.16 25.65-24.64 9.1-52.25 9.02-77.27 1.45-19.33-5.82-37.32-17.84-47.83-35.37-9.95-15.66-11.33-35.19-8.56-53.13 2.36-15.76 10.65-30.36 22.31-41.11 10.07-9.13 22.27-15.7 35.09-20.09 38.73-13.5 80.33-13.03 120.81-13.01.38-11.37-.44-23.49-6.97-33.22-8.13-12.17-22.49-18.58-36.5-21.04-30.35-5.1-62.86 4.49-85.18 25.78-11.39-11.38-22.78-22.77-34.17-34.16 12.95-13.2 28.62-23.79 45.97-30.28m39.87 144.09c-9.97 2.5-19.71 6.55-27.84 12.94-12.4 9.69-12.86 30.3-2 41.32 9.14 10.05 23.15 13.7 36.3 14 13.91.1 28.35-1.6 40.71-8.39 11.93-6.48 20.26-18.46 23.62-31.47 3.09-11.09 2.36-22.7 2.45-34.08-24.47.14-49.34-.37-73.24 5.68zM484.37 144.13c20.59-.01 41.17 0 61.75-.01.06 16.23-.11 32.46.09 48.69.85-.77 1.52-1.66 2.04-2.68 6.87-13.65 17.63-25.16 30.19-33.77 15.91-10.38 35.6-12.64 54.18-11.94 16.81.52 33.77 4.69 47.96 13.96 16.12 9.93 28.17 25.88 34.06 43.81 4.48 13.79 6.43 28.33 6.61 42.8v165.39h-65c0-43.79-.01-87.58 0-131.36-.26-17.09-.52-34.82-7.47-50.76-5.15-11.48-15-21.69-27.72-24.19-11.48-2.28-23.65-1.54-34.77 2.15-14.82 5.24-26.65 17.56-31.94 32.28-3.53 9.75-4.94 20.16-4.98 30.49.01 47.13.01 94.26.01 141.39-21.67 0-43.34-.01-65 0-.01-88.75 0-177.5-.01-266.25zM753.62 144.13c21.63-.01 43.26-.01 64.88 0v266.25h-64.88V144.13zM904.93 173.86c27.92-21.2 64.34-30.57 99.05-25.83 26.43 3.43 51.66 15.02 71.6 32.69-74.21 25.94-148.42 51.87-222.63 77.8 5.71-33.49 24.78-64.35 51.98-84.66zM1009.46 415.04c25.96-74.2 51.82-148.43 77.84-222.6 18.51 20.9 30.32 47.63 33.11 75.43 3.02 28.53-3.28 57.99-17.93 82.69-19.67 33.67-54.53 57.98-93.02 64.48zM853.61 308.8c-2.26-10.79-2.88-21.83-2.6-32.82 18.61 10.47 37.22 20.94 55.83 31.42 11.36 6.56 23.03 12.65 34.21 19.49 5.86 9.3 10.87 19.16 16.41 28.67 11.49 20.49 23.09 40.9 34.52 61.42-31.2 1.33-62.78-8.31-87.59-27.34-25.97-19.62-44.49-48.88-50.78-80.84z"/>
    </g>
</svg>
