<svg width="1884" height="416pt" viewBox="0 0 1413 416" xmlns="http://www.w3.org/2000/svg">
    <g fill="#000028">
        <path d="M381.24 23.27c2.66-5.83 4.78-11.91 7.79-17.58.6 1.17 1.21 2.34 1.77 3.55 54.32 127.58 108.79 255.11 163.06 382.72-13.97.09-27.94.02-41.91.04-5.43-11.74-10.04-23.85-15.16-35.73-27.83-66.52-55.66-133.04-83.48-199.56-8.16-19.14-15.83-38.5-24.28-57.52-8.91 19.9-17.03 40.15-25.64 60.18C333.2 230.83 303 302.29 272.8 373.75c-2.66 6.05-4.95 12.26-7.84 18.21-13.99.08-27.98.04-41.97.02 52.62-122.96 105.52-245.8 158.25-368.71zM578.17 10.69c11.73 11.98 22.74 24.66 34.2 36.91 78.19 85.15 156.4 170.28 234.57 255.44 1.05 1.12 2.15 2.19 3.27 3.26.38-52.09.06-104.2.16-156.3-.01-42.35.02-84.71-.01-127.07 12.87-.66 25.8-.24 38.7-.21.15 113.43.02 226.85.06 340.28-.07 14.03.15 28.06-.1 42.09-77.03-83.69-153.75-167.66-230.67-251.46-13.87-14.93-27.35-30.23-41.46-44.93-.32 94.4-.03 188.81-.14 283.21-12.87.17-25.74.12-38.61.03-.02-127.08-.07-254.17.03-381.25zM1044.09 113.06c30.63-53.91 88.98-91.38 151.06-95.11.16 11.02.19 22.04-.02 33.06-20.61 1.92-40.78 8.12-58.77 18.38-27.85 15.23-50.11 39.85-63.48 68.54-14.34 29.92-18.89 64.24-13.56 96.94 7.15 44.21 33.69 85.54 72.6 108.27 19.11 11.51 40.85 18.47 63.07 20.37.56 10.95.18 21.94.2 32.9-36.97-2.14-73.2-15.53-102.76-37.83-43.09-32.57-71-84.58-73.58-138.62-2.47-37.12 6.3-74.85 25.24-106.9zM1214.69 17.46c34.51.52 68.98 10.21 98.25 28.64 29.3 18.13 53.1 44.88 67.95 75.96 16.34 33.28 21.69 71.32 17.79 108.02-3.08 30.52-14.01 60.08-31.07 85.53-17.22 25.84-41.19 47.14-68.98 61.02-25.94 13.1-54.93 19.7-83.92 20.36-.15-10.97-.18-21.94.02-32.91 21.05-.8 42.15-5.03 61.21-14.17 28.15-12.99 51.63-35.5 66.15-62.86 16.17-29.87 21.63-64.78 18.11-98.38-3.35-34-17.02-67.34-40.4-92.48-21.32-23.03-50.63-38.25-81.55-43.27-7.79-1.45-15.72-1.77-23.59-2.52-.06-10.98-.11-21.96.03-32.94zM158.45 22.99c8.48-.86 17.04-.13 25.55-.37 4.55.04 9.11-.25 13.64.31-.03 89.02-.01 178.05-.01 267.07-.15 13.98-.65 28.2-5.09 41.58-5.84 18.82-19.04 34.8-35.33 45.63-21.16 14.24-46.94 20.15-72.2 20.53-24.63.49-49.43-5.61-70.83-17.87-1.34-.8-2.59-1.72-3.83-2.66 5.94-10.15 11.61-20.48 17.73-30.52 14.72 8.47 30.87 15.05 47.93 16.51 19.44 1.52 39.62-2.47 56.22-12.96 9.4-5.77 17.19-14.33 21.43-24.57 3.67-8.72 4.95-18.26 4.86-27.67-.07-91.67.06-183.34-.07-275.01zM939.71 22.72c12.82-.16 25.65-.17 38.46 0 .18 97.43.03 194.85.08 292.28-.06 25.65.1 51.3-.08 76.94-12.82.11-25.64.09-38.46.02-.21-88.99-.03-177.97-.09-266.96.06-34.09-.12-68.19.09-102.28z"/>
    </g>
</svg>
