<svg width="971pt" height="380" viewBox="0 0 971 285" xmlns="http://www.w3.org/2000/svg">
    <g fill="#1fceca">
        <path d="M402.82 179c23.04-53.59 45.99-107.22 69.08-160.79 22.93 53.56 45.7 107.19 68.58 160.78-5.93.02-11.86.01-17.78.01-16.95-40.45-33.83-80.94-50.82-121.37-17.04 40.47-34.22 80.89-51.23 121.37h-17.83zM550.22 20.21c37.73 40.93 75.27 82.03 113.02 122.95.02-39.22 0-78.44.01-117.66h16.25c-.01 53.06.03 106.12-.02 159.17-37.71-40.97-75.23-82.12-112.97-123.07-.03 39.13 0 78.27-.01 117.4h-16.25c-.02-52.93.03-105.86-.03-158.79zM154.23 26.47c2.28-3.19 6.68-5.36 10.35-3.08 5.08 2.38 4.89 10.69-.27 12.86-3.61 2.03-7.88-.03-9.97-3.24-48.7-.02-97.4-.01-146.09-.01v28.5c29.92-.2 59.82.45 89.73.22 1.95-2.44 4.79-4.68 8.15-3.88 4.65.66 7.38 6.38 5.13 10.47-1.78 3.92-7.66 5.36-10.84 2.32-1.36-.99-2.42-2.82-4.36-2.39-31.44.13-62.87-.43-94.31-.24V26.5c50.83-.02 101.65.04 152.48-.03zM742.51 65.35c12.49-23.57 37.46-40.26 64.23-41.72.03 4.66-.02 9.31.04 13.96-18.16 1.5-35.29 11.7-45.53 26.72-7.68 11.29-12.1 24.93-11.79 38.63-.22 17.2 6.86 34.36 19.06 46.48 10.13 10.2 23.97 16.48 38.27 17.73-.07 4.63-.03 9.27-.04 13.91-16.15-1.15-32.04-6.96-44.67-17.18-13.69-10.99-23.45-26.79-27.18-43.94-3.82-18.34-1.54-38.12 7.61-54.59zM814.51 23.42c19.43.23 38.82 7.66 52.91 21.13 13.41 12.57 21.86 30.16 23.7 48.41 1.26 13.43-.02 27.29-5.19 39.84-7.11 17.94-21.15 33.17-38.82 41.1-10.2 4.74-21.41 6.94-32.61 7.37-.01-4.64.01-9.28-.02-13.92 15.35-.43 30.74-6.22 41.71-17.13 12.66-12.12 19.33-29.82 19.08-47.22.35-16.84-5.43-33.97-16.9-46.45-11.08-12.23-27.5-18.84-43.88-19.15.02-4.66-.01-9.32.02-13.98zM376.51 139.07c-.02-37.86-.01-75.71-.01-113.57h16.25c0 38.52.01 77.05 0 115.57-.11 8.49-2.37 17.24-7.87 23.88-7.94 9.92-20.57 15.07-32.99 16.2-12.81 1.47-26.1-1.29-37.09-8.08 2.46-4.41 5-8.77 7.54-13.14 7.95 4.89 17.34 7.9 26.75 6.98 8.31-.74 16.84-3.96 22.3-10.5 4.02-4.79 5.14-11.25 5.12-17.34zM700.25 25.5h16.25V179h-16.25V25.5z"/>
        <path d="M16.07 41.07c3.71-2.23 8.14-.09 10.41 3.16 40.09.04 80.18 0 120.27.02.03 22.34-.06 44.68.05 67.01 2.82 2.12 5.05 5.71 3.5 9.3-1.66 5.65-10.4 6.41-13.09 1.21-2.32-3.68-.35-8.26 3-10.51.09-20.17.01-40.34.04-60.51-37.97.02-75.93-.03-113.89.03-2.23 2.9-6.07 5.08-9.7 3.32-5.45-1.98-5.89-10.59-.59-13.03z"/>
        <path d="M154.02 49.06c.62-5.79 8.95-7.95 12.49-3.46 3.41 3.52 1.64 9.32-2.25 11.7-.03 46.24 0 92.47-.01 138.7-.71 18.37-7.06 36.92-19.57 50.63-13.96 15.48-34.33 24.06-54.78 26.39-14.08.98-28.47-.98-41.59-6.3-17.31-6.94-31.85-20.17-40.96-36.38-4.03-.5-7.83-3.92-7.11-8.26.22-6.14 8.93-8.62 12.68-4.02 2.64 2.7 1.55 6.56.67 9.74 9.16 16.35 24.66 29.07 42.53 34.78 14.4 4.51 30.15 5.81 44.83 1.82 16.57-4.08 32.41-13.01 42.71-26.85 10.33-13.82 14.63-31.48 14.09-48.55-.02-43.92.03-87.83-.02-131.74-2.41-2-4.57-4.86-3.71-8.2z"/>
        <path d="M119.88 60.86c2.84-4.47 10.4-4.01 12.52.9 2 3.61-.06 7.82-3.13 10.04-.05 39.05 0 78.11-.03 117.16-.33 13.45-3.6 27.38-12.07 38.11-7.76 9.87-19.71 16.28-32.2 17.38-12.55.31-25.43-4.08-34.42-13-7.54-7.09-12.47-16.57-15.29-26.45-7.04.01-14.09-.03-21.14.03-2.52 4.34-9.22 5.25-12.39 1.16-3.69-4.19-.45-11.85 5.25-11.73 3.12-.45 5.56 1.77 7.36 4.02 8.74.03 17.49.03 26.24 0 2.68 14.99 11.66 29.8 26.06 35.97 7.53 3.01 16.1 4.71 24.05 2.37 10.21-2.66 19.29-9.44 24.58-18.59 5.29-9.12 7.24-19.79 7.48-30.21-.01-38.73.03-77.46-.02-116.19-3.69-2.21-5.38-7.26-2.85-10.97z"/>
        <path d="M137.19 135.01c2.7-5.3 11.65-4.4 13.17 1.37 1.41 3.56-.88 7.04-3.59 9.19-.04 14.14-.02 28.29-.01 42.43.41 14.87-3.53 29.85-11.27 42.55-7.75 12.98-20.6 22.86-35.3 26.54-13.15 3.27-27.33 3.07-40.24-1.19-13.11-4.31-24.27-13.7-31.16-25.61-4.49-.38-8.21-4.77-6.82-9.3 1.17-5.93 10.18-7.28 13.13-2.06 1.92 2.67.96 5.96-.19 8.71 7.3 12.33 19.96 21.28 34.06 23.91 16.07 3.05 33.91.79 47.21-9.28 15.14-11.47 23.07-30.53 24.04-49.16.03-15.86.08-31.73-.03-47.59-3.36-2.25-5.29-6.82-3-10.51z"/>
    </g>
    <g fill="#fff">
        <path d="M360.67 228h5.81c-1.38 3.98-2.66 8-4.03 11.99-1.48 0-2.95.01-4.42.01.86-4 1.82-7.99 2.64-12zM683.82 230.76c6.41-4.44 15.31-3.09 21.41 1.29-.88 1.69-1.74 3.38-2.6 5.07-3.14-2.04-6.71-3.94-10.58-3.62-3.36.29-7.11 2.71-7.08 6.43-.07 2.4 1.74 4.26 3.72 5.33 4.81 2.85 10.75 3.97 14.65 8.23 4.64 5.16 2.98 14.41-3.21 17.57-7.14 3.8-16.26 1.64-22.16-3.51 1.1-1.55 2.2-3.09 3.28-4.65 3.12 2.46 6.79 4.4 10.83 4.66 3.42.16 7.42-1.85 7.89-5.56.49-2.7-1.23-5.23-3.49-6.52-4.97-3.1-11.16-4.38-15.19-8.86-3.96-4.72-2.52-12.5 2.53-15.86zM258.05 229h6.38c5.18 14.33 10.36 28.67 15.57 42.99-2.1.01-4.2.01-6.29.01-1.5-3.98-2.93-7.99-4.36-12h-16.32c-1.41 4-2.87 7.99-4.25 12h-6.29c5.22-14.32 10.41-28.66 15.56-43m-3.43 26h13.08c-2.14-6.75-4.85-13.33-6.46-20.24-1.65 6.92-4.33 13.52-6.62 20.24zM313 229h6v6h-6v-6zM418 229h6v37.73h19.26c0 1.76 0 3.51.01 5.27H418v-43zM524 229h6c-.01 2-.01 4 0 6h-6c-.01-2-.01-4 0-6zM588 229h6c-.01 2-.01 4 0 6h-6c-.01-2-.01-4 0-6zM714 229h6c-.01 2-.01 4 0 6h-6c-.01-2-.01-4 0-6zM821 229h6c.07 11.62-.14 23.25.09 34.87-.01 2.42 2.29 2.81 4.19 3.19-.02 1.69-.04 3.38-.07 5.08-2.74-.34-6.01-.05-8.04-2.28-1.8-1.68-2.06-4.31-2.16-6.62-.03-11.41 0-22.83-.01-34.24zM838 229h6c-.01 2-.01 4 0 6h-6c-.01-2-.01-4 0-6zM856.98 232c2.87-2.88 7.2-3.06 11.02-3.06-.01 1.74-.01 3.48 0 5.23-2.15.18-4.64-.12-6.33 1.51-1.66 1.24-1.53 3.47-1.84 5.3 6.38.04 12.78.01 19.17.02v31h-6v-26.27h-13V272h-6v-26.27h-3.73c-.01-1.58-.02-3.16-.01-4.73h3.61c.2-3.17.64-6.72 3.11-9z"/>
        <path d="M873 229h6c-.01 2-.01 4 0 6h-6c-.01-2-.01-4 0-6zM944 229h6v43c-1.93 0-3.86-.01-5.76-.01.01-1.49.04-2.98.09-4.46-4.01 6.7-14.34 7.31-19.29 1.4-5.23-6.56-5.39-16.7-.79-23.63 4.33-6.54 15.39-7.41 19.83-.53-.17-5.25-.05-10.51-.08-15.77m-10.57 16.48c-7.06 2.56-7.8 12.09-4.89 18.02 2.18 4.78 9.35 5.85 12.77 1.86 3.82-4.54 3.78-11.62.81-16.58-1.67-3.03-5.48-4.2-8.69-3.3zM567.27 232.27c1.9-.01 3.81-.01 5.73 0 0 2.99-.01 6 0 9 2.5 0 5 0 7.5-.02-.03 1.58-.04 3.16-.05 4.75H573c.13 5.37-.28 10.77.21 16.12.45 3.73 4.53 5.04 7.79 4.72-.01 1.74-.01 3.48 0 5.23-5.13.34-11.6-1.19-13.23-6.78-1.57-6.28-.42-12.88-.77-19.29h-4c-.01-1.58-.01-3.16 0-4.73 1.41-.01 2.84-.01 4.27 0-.01-3.01-.01-6 0-9zM283.39 246.45c.86-3.43 4.22-5.48 7.51-6.11 4.61-1.1 9.47.21 13.34 2.81-.76 1.57-1.53 3.14-2.29 4.71-2.98-2.15-6.83-3.31-10.45-2.28-2.12.73-3.63 3.86-1.58 5.48 3.72 3.31 9.39 3.5 12.83 7.28 3.68 3.52 2.61 10.25-1.74 12.76-5.96 3.6-13.89 1.86-19.03-2.45.91-1.47 1.84-2.92 2.77-4.37 3.26 2.57 7.65 4.5 11.79 2.99 2.14-.66 3.44-3.78 1.61-5.43-3.34-3.07-8.28-3.45-11.78-6.32-2.74-2.02-4.14-5.8-2.98-9.07zM327.13 243.56c5.33-3.37 12.43-4.93 18.32-2.08 3.93 1.81 5.5 6.39 5.54 10.44.05 6.7-.01 13.39.01 20.08-1.84 0-3.67-.01-5.5-.01.02-1.62.06-3.24.14-4.85-1.83 2.25-3.83 4.7-6.81 5.38-4.77 1.4-11.03-.35-13.04-5.27-1.79-3.89-.51-8.96 3.08-11.37 4.73-3.27 10.78-3.34 16.32-3.39-.24-2.48-.47-5.51-3.08-6.68-4.21-2.06-8.89 0-12.62 2.14-.8-1.46-1.6-2.92-2.36-4.39m4.41 17.26c-2.33 4.03 2.43 8.59 6.52 7.32 5.08-1.02 6.99-6.62 7.35-11.17-4.67.2-10.83-.52-13.87 3.85zM372.6 245.82c1.07-3.11 4.24-4.86 7.29-5.48 4.62-1.1 9.48.21 13.36 2.81-.77 1.57-1.54 3.14-2.3 4.71-3-2.17-6.9-3.35-10.53-2.25-2.08.77-3.53 3.85-1.5 5.45 3.71 3.3 9.35 3.5 12.8 7.24 3.72 3.52 2.65 10.29-1.72 12.8-5.95 3.6-13.89 1.86-19.02-2.45.91-1.47 1.84-2.92 2.78-4.37 3.24 2.56 7.61 4.49 11.75 3.01 2.16-.65 3.48-3.8 1.62-5.46-3.51-3.21-8.77-3.51-12.29-6.76-2.61-2.21-3.61-6.09-2.24-9.25zM457.51 240.79c8.09-2.68 18.27 1.18 21.29 9.45 3.33 7.83-.44 17.96-8.41 21.24-8.55 4.06-20.45.02-23.39-9.33-3.35-8.45 1.67-18.97 10.51-21.36m1.97 4.9c-8.39 2.48-10.08 14.96-3.09 19.93 5.95 4.96 16.26 1.14 17.34-6.61 2.34-8.12-6.26-16.31-14.25-13.32zM487.69 245.65c4.28-7.1 15.68-7.64 20.71-1.04-.08-1.2-.15-2.4-.19-3.59 1.83-.02 3.68-.02 5.52-.03-.01 10.03.02 20.05 0 30.08-.01 3.79-1.26 7.81-4.28 10.28-2.78 2.44-6.53 3.25-10.1 3.65h-1.94c-3.33-.24-6.54-1.26-9.6-2.54.61-1.51 1.24-3.01 1.87-4.51 4.77 1.7 10.61 3.08 15.13.02 3.65-2.34 3.02-7.16 3.3-10.9-4.02 6.19-13.49 6.39-18.43 1.3-5.71-5.91-6.07-15.82-1.99-22.72m8.69-.03c-5.61 2.3-6.27 9.77-4.68 14.87 1.2 4.87 6.93 7.69 11.54 5.66 3.34-1.54 4.62-5.46 4.74-8.88.11-3.41-.07-7.25-2.48-9.9-2.32-2.37-6.09-2.51-9.12-1.75zM540.98 241.84c5.35-3.11 12.29-2.13 17.27 1.31-.77 1.57-1.54 3.14-2.3 4.71-2.99-2.16-6.85-3.32-10.47-2.27-2.13.74-3.61 3.89-1.54 5.5 3.71 3.26 9.32 3.48 12.77 7.2 3.73 3.52 2.66 10.31-1.72 12.82-5.96 3.58-13.88 1.85-19.01-2.46.91-1.47 1.84-2.92 2.78-4.37 3.24 2.56 7.6 4.49 11.74 3.01 2.16-.64 3.49-3.79 1.64-5.45-3.85-3.5-9.87-3.62-13.28-7.78-3.19-3.6-2.11-9.91 2.12-12.22zM603.48 247.51c5.16-8.86 18.33-9.74 25.76-3.25-.93 1.45-1.84 2.91-2.74 4.38-3.71-3.03-8.98-4.66-13.49-2.44-7.34 3.35-8.08 14.85-1.68 19.5 4.92 3.8 12.06 2.03 16.28-2.02.75 1.52 1.55 3.04 2.34 4.55-5.6 4.95-14.23 6.44-20.85 2.68-8.16-4.27-10.4-15.84-5.62-23.4zM635.39 246.44c.86-3.41 4.19-5.44 7.45-6.09 4.63-1.12 9.51.19 13.4 2.8-.76 1.57-1.53 3.14-2.29 4.71-3-2.16-6.88-3.33-10.51-2.26-2.1.76-3.56 3.88-1.5 5.49 3.71 3.26 9.32 3.48 12.77 7.2 3.73 3.51 2.67 10.3-1.71 12.81-5.96 3.6-13.88 1.86-19.02-2.45.91-1.47 1.84-2.92 2.78-4.37 3.24 2.56 7.59 4.49 11.73 3.02 2.18-.65 3.51-3.82 1.63-5.48-3.32-3.03-8.18-3.43-11.67-6.24-2.79-2.02-4.24-5.83-3.06-9.14zM734.65 247.05c2.45-4.79 7.93-8.38 13.41-6.7 3.28.69 5.28 3.6 6.25 6.62 2.98-6.05 11.12-8.92 17.1-5.63 3.31 1.86 4.42 5.8 4.54 9.35.13 7.1 0 14.21.05 21.31h-6c-.1-7.08.19-14.17-.14-21.24-.04-2.63-2.01-5.47-4.86-5.32-5.55-.48-9.63 5.05-9.94 10.14-.17 5.47-.01 10.95-.06 16.42h-6c-.07-7.04.12-14.09-.08-21.13-.03-2.33-1.32-5.16-3.94-5.36-5.44-.91-9.45 4.65-9.88 9.54-.26 5.64-.02 11.3-.1 16.95h-6v-31c1.91 0 3.82 0 5.75.01-.02 2.01-.04 4.02-.1 6.04zM790.36 245.28c4.57-6.95 15.9-7.07 20.48-.11 4.47 7 4.38 17.13-1.01 23.61-4.78 5.63-14.89 5.81-18.89-.81.12 5.5.03 11 .06 16.5a600 600 0 00-6 0V241c1.83 0 3.66 0 5.5.01-.04 1.42-.09 2.84-.14 4.27m6.06.42c-6.41 3.09-6.89 12.13-3.95 17.84 2.07 4.57 8.72 5.7 12.23 2.13 4.2-4.33 4.21-11.57 1.46-16.68-1.96-3.31-6.19-4.6-9.74-3.29zM890.97 244.96c4.69-5.65 14.24-6.78 19.71-1.66 3.74 3.64 4.53 9.14 4.34 14.12-7.42.11-14.84-.01-22.25.07.69 3.38 1.68 7.3 5.08 8.96 4.61 2.75 10.37.94 14.35-2.13.79 1.48 1.58 2.96 2.39 4.44-5.63 4.46-13.97 5.88-20.23 1.91-8.54-5.23-9.65-18.3-3.39-25.71m1.99 7.93c5.39.21 10.8.07 16.21.1-.22-4.02-2.84-8.38-7.32-8.29-4.75-.18-7.9 3.98-8.89 8.19zM313 241h6v31h-6v-31zM524 241h6v31h-6v-31zM588 241h6v31h-6v-31zM714 241h6v31h-6v-31zM838 241h6v31h-6v-31z"/>
    </g>
</svg>
