<svg width="1000pt" height="286pt" viewBox="0 0 1000 286" xmlns="http://www.w3.org/2000/svg">
    <path fill="#95bf47" d="M79.73 17.72C87.55 8.55 98.57.7 111.11.99c6.63-.1 12.78 3.26 17.16 8.08 5.45-.21 11.07.84 15.64 3.95 7.9 5.28 12.48 14.12 15.33 22.94 3.96-1.3 7.92-2.67 12.07-3.21-.11 82.18-.1 164.37 0 246.55C114.2 269.47 57.11 259.56 0 249.7v-.76c7.17-54.67 14.1-109.37 21.32-164.03.4-2.15.59-4.68 2.36-6.22 1.68-1.24 3.73-1.79 5.68-2.47 9.06-2.89 18.19-5.59 27.26-8.45 3.19-18.28 11.16-35.82 23.11-50.05m5.41 8.27c-8.97 11.34-15.2 24.74-18.78 38.71 7.72-2.36 15.41-4.83 23.16-7.1 3.83-17.61 12.14-35.93 28.16-45.54-3.31-1.31-6.91-2.32-10.47-1.49-9.16 1.73-16.37 8.42-22.07 15.42m48.3-7.56c2.53 7.85 3.8 16.06 3.88 24.3 4.35-1.36 8.69-2.76 13.06-4.07-2.67-8.53-7.73-17.65-16.94-20.23M99.93 54.31c9.46-2.88 18.88-5.91 28.35-8.74-.17-8.79-.82-17.84-4.48-25.96-13.08 6.82-19.85 21.17-23.87 34.7M65.66 107.6c-9.32 11.24-12.84 26.74-10.21 41 1.33 6.85 4.99 13.14 10.11 17.84 5.95 5.81 13.78 9.37 19.29 15.64 3.75 4.22 5.44 10.96 2.18 15.93-2.46 4.07-7.66 5.32-12.1 4.61-8.7-1.29-16.46-5.8-23.64-10.63-1.97 8.29-3.85 16.6-5.88 24.87 11.92 10.92 28.76 15.79 44.72 14.06 10.2-1.03 20.05-6.21 26.21-14.47 7.25-9.43 9.55-21.92 8.36-33.57-.78-8.55-4.66-16.75-10.73-22.82-6.66-6.97-15.33-11.4-23.08-16.96-3.19-2.51-6.9-5.58-6.93-10.01-.47-5.56 3.54-10.61 8.71-12.26 9.52-3.12 19.96-1.43 29.12 2.13 2.7-10.91 5.82-21.72 8.53-32.63-8.76-3.25-18.33-2.97-27.47-1.87-14.09 1.69-28.17 7.88-37.19 19.14z"/>
    <path fill="#5e8e3e" d="M171.31 32.75c3.18 1.66 5.62 4.35 8.13 6.84 4.14 4.24 8.62 8.13 12.72 12.41 7.59.48 15.43-1 22.83.95 10.44 69.28 20.33 138.65 30.88 207.92-12.95 3.54-26.07 6.48-39.08 9.81-11.82 2.89-23.59 6.06-35.48 8.62-.1-82.18-.11-164.37 0-246.55z"/>
    <path d="M844.25 69.21c14.03-13.71 36.11-16.52 54.28-10.59-2.26 8.93-4.43 17.88-6.64 26.83-6.59-1.75-14.32-3.06-20.25 1.22-7.93 5.43-10.34 15.39-11.73 24.33 7.81 0 15.62-.01 23.43.01-1.59 8.59-3.32 17.15-4.94 25.74-7.79.01-15.58 0-23.36.01-5.96 31.58-11.93 63.16-17.9 94.74-11.38.01-22.76-.02-34.14.02 5.9-31.59 11.92-63.16 17.86-94.74-5.25-.06-10.5.02-15.75-.07 1.63-8.58 3.3-17.14 4.96-25.71h15.81c2.26-15.16 7.14-30.81 18.37-41.79zM409.85 58.25c11.38-.03 22.77.04 34.16-.04-4.25 22.8-8.71 45.56-12.99 68.35 6.59-7.6 14.91-14.15 24.84-16.59 9.21-2.32 19.88-2.37 27.97 3.23 7.07 4.83 10.54 13.43 11.1 21.74.87 12.89-2.15 25.58-4.5 38.16-3.7 19.47-7.38 38.94-11.11 58.4-11.38-.01-22.76.01-34.14-.01 4.42-23.68 9-47.33 13.4-71.01.71-6.2 1.97-12.82-.33-18.82-2.08-5.04-8.49-6.5-13.25-4.72-7.49 2.58-12.44 9.39-16.03 16.11-5.6 10.56-7.04 22.57-9.34 34.13-2.84 14.77-5.67 29.55-8.49 44.32-11.39.01-22.77-.01-34.16.01 10.91-57.76 21.95-115.5 32.87-173.26zM784.26 60.27c6.74-1.23 14.54 1.32 18.01 7.53 4.8 8.78 1.98 21.47-7.02 26.43-6.75 3.76-16.2 4.11-22.2-1.29-7.85-7.72-6.34-22.11 2.22-28.72 2.56-2.12 5.72-3.42 8.99-3.95zM308.88 124c10.02-10.58 24.97-15.03 39.22-15.13 10.07.06 20.64.64 29.71 5.5-2.61 8.14-5.28 16.26-8.02 24.36-8.37-3.31-17.59-5.71-26.61-4.06-5.09.85-10.12 4.85-10.2 10.35-.1 5.02 4.06 8.64 7.93 11.15 5.29 3.29 10.93 6.1 15.7 10.17 6.97 5.6 12.74 13.48 13.48 22.64.72 10.32-2.13 21.23-9.22 28.98-7.58 8.64-18.78 13.18-29.92 14.95-15.8 2.46-32.72.67-46.77-7.34 2.77-8.12 5.67-16.21 8.44-24.33 8.86 4.29 18.5 7.44 28.43 7.45 4.52-.15 9.53-1.48 12.27-5.36 2.99-4.08 2.3-9.98-.85-13.78-3.9-4.7-9.63-7.23-14.64-10.51-8.25-5.37-15.9-12.95-18.21-22.83-2.37-11.42 1.27-23.76 9.26-32.21zM561.26 109.33c13.19-2.1 27.73-.48 38.7 7.68 11.29 8.19 17.06 22.22 17.74 35.86.68 17.91-3.71 36.23-13.55 51.31-8.61 13.52-22.18 24.02-37.81 27.97-13.4 3.2-28.31 2.8-40.59-3.96-9.87-5.38-16.94-15.1-19.9-25.86-3.48-12.47-2.3-25.75.63-38.21 4.31-17.26 13.99-33.59 28.63-44.01 7.7-5.61 16.75-9.28 26.15-10.78m1.11 26.26c-5.55 1.78-9.79 6.2-12.86 11-5.25 8.17-8.2 17.63-9.85 27.15-1.12 6.87-1.84 14-.13 20.84 1.09 4.25 3.23 8.49 7 10.95 5.18 3.37 12.41 2.94 17.36-.69 5.51-4 9.11-10.04 11.82-16.17 4.39-10.32 6.65-21.5 7.01-32.69.01-5.84-1.07-12.13-5.07-16.65-3.77-4.17-10.02-5.25-15.28-3.74zM695.59 109.46c10.61-2.34 22.76-.55 30.97 6.99 7.93 7.19 11.42 18.01 12.3 28.42 1.42 20.35-3.42 41.26-14.37 58.54-8.29 12.99-20.67 23.93-35.71 28.18-11.75 3.27-24.9 3.2-35.97-2.34-3.11 16.75-6.26 33.5-9.38 50.25-11.39.02-22.77-.03-34.15.02 8.18-43.52 16.5-87.02 24.73-130.53 2.32-12.85 4.1-25.79 5.77-38.74 10.05-.04 20.11.06 30.16-.06-.66 6.2-1.3 12.39-2.02 18.58 6.78-9.2 16.36-16.76 27.67-19.31M677.98 142c-7.94 7.44-11.98 18.06-14.21 28.5-1.98 11.04-3.96 22.09-5.81 33.16 5.82 4.36 13.92 6.15 20.75 3.18 6.47-2.85 11.11-8.58 14.65-14.52 6.45-11.3 10.03-24.29 10.17-37.31-.12-6.02-1.41-13.17-6.95-16.58-6.07-3.63-13.78-.94-18.6 3.57zM762.74 111.25c11.5-.01 22.99.01 34.49-.01-7.67 40.09-15.39 80.16-23.04 120.25-11.4.03-22.8-.01-34.2.03 7.59-40.09 15.15-80.18 22.75-120.27zM889.44 111.25c11.92-.01 23.85-.01 35.78 0 2.9 27.69 5.95 55.36 8.44 83.09 9.48-28 20.22-55.54 30.95-83.07 11.8-.05 23.59-.01 35.39-.03v.73c-12.64 27.35-25.43 54.63-38.13 81.96-6.05 13.26-12.75 26.23-20.24 38.73-8.3 13.54-17.62 26.72-29.62 37.26-8.69 7.33-18.84 13.1-29.84 16.08h-1.33c-3.07-9.59-6.21-19.16-9.35-28.72 15.3-5.17 29.59-15.03 37.43-29.45 1.28-2.08 1.2-4.58.78-6.89-6.76-36.56-13.54-73.12-20.26-109.69z"/>
    <g>
        <path fill="#fff" d="M65.66 107.6c9.02-11.26 23.1-17.45 37.19-19.14 9.14-1.1 18.71-1.38 27.47 1.87-2.71 10.91-5.83 21.72-8.53 32.63-9.16-3.56-19.6-5.25-29.12-2.13-5.17 1.65-9.18 6.7-8.71 12.26.03 4.43 3.74 7.5 6.93 10.01 7.75 5.56 16.42 9.99 23.08 16.96 6.07 6.07 9.95 14.27 10.73 22.82 1.19 11.65-1.11 24.14-8.36 33.57-6.16 8.26-16.01 13.44-26.21 14.47-15.96 1.73-32.8-3.14-44.72-14.06 2.03-8.27 3.91-16.58 5.88-24.87 7.18 4.83 14.94 9.34 23.64 10.63 4.44.71 9.64-.54 12.1-4.61 3.26-4.97 1.57-11.71-2.18-15.93-5.51-6.27-13.34-9.83-19.29-15.64-5.12-4.7-8.78-10.99-10.11-17.84-2.63-14.26.89-29.76 10.21-41z"/>
    </g>
</svg>
